<svg xmlns="http://www.w3.org/2000/svg" height="25" viewBox="0 -960 960 960" fill="#eee" width="25"><path d="m369-60-21-132.5q-7.5-1.5-24.75-11.25T289-225l-123 57L52.5-369l113-82q-1-5.975-1.5-13.987-.5-8.013-.5-15.013 0-5.5.5-14.25t1.5-15.75l-113-83L166-791.5 292-735q9-7.5 25.25-16.75T348-765.5l21-136h222.5l21 134.5q13 5 29.75 14T670-735l125.5-56.5L908-593l-115.5 82.041q.5 6.959 1.75 15.209T795.5-480q0 7.5-1.25 15.425-1.25 7.925-1.75 14.657L907.5-369 794-168l-125-57.5q-9.971 8.864-25.236 18.182Q628.5-198 612.5-192.5L591.5-60H369Zm108.231-292.5q52.805 0 90.037-37.275 37.232-37.276 37.232-90.25 0-52.975-37.268-90.225Q529.964-607.5 477-607.5q-53.5 0-90.5 37.275-37 37.276-37 90.25 0 52.975 37 90.225 37 37.25 90.731 37.25ZM477-410q-30.5 0-50.25-20.5T407-480q0-29 19.75-49.5T477-550q29 0 49.5 20.5T547-480q0 29-20.5 49.5T477-410Zm3-70.5Zm-35.651 329h70.085L530-263q33.585-8.066 63.585-24.443 30-16.377 53.915-43.557L754-284.5l30.5-58.256L692-410q3.5-18 6.75-35.209 3.25-17.21 3.25-34.91Q702-498 699.5-515t-7.5-35l93.5-67.5-31-58.5-106 46.5q-22.5-27-53.25-46t-65.25-23L516-809h-72l-12.5 110.535q-37 6.465-67 23.965t-55 45L206-676l-32 58.5 91 65.5q-4 18.5-7 36.319-3 17.819-3 35.151 0 18.03 2.75 36.28t6.75 35.75L174-343l31.859 58.5 103.641-46q25.5 26.5 56.25 43.75t65.75 25.25l12.849 110Z"/></svg>